#!OML:ASF E:\Style6\Style6.ASF
:FULLY-SPECIFIED
:DEGREES
3052
root 0.0601971 18.2563 1.46298 22.8925 2.6571 0.723755
lowerback 10.9364 -0.663557 8.22454
upperback -3.80701 0.946967 6.06106
thorax -10.3223 0.16026 1.76158
lowerneck -3.16146 -5.22572 1.6905
upperneck -14.2823 -9.19409 -15.9243
head -4.53372 -3.98591 -4.9274
rclavicle 3.26007e-014 -6.99722e-014
rhumerus -59.0397 -27.3617 -38.9267
rradius 79.2377
rwrist 157.209
rhand -27.8252 12.0998
rfingers 7.12502
rthumb -1.21706 -17.8764
lclavicle 3.26007e-014 -6.99722e-014
lhumerus -55.5581 27.6493 57.3992
lradius 66.1669
lwrist 26.6199
lhand -14.5003 37.1577
lfingers 7.12502
lthumb 11.6466 66.814
rfemur -28.1157 19.232 12.6997
rtibia 18.7612
rfoot -20.8941 -26.8572
rtoes 26.428
lfemur -23.9279 -21.3219 -10.6318
ltibia 12.6741
lfoot -5.46319 21.3019
ltoes -5.85148
3053
root 0.0468679 18.2508 1.46479 22.8677 2.68087 0.731874
lowerback 11.0476 -0.675131 8.2787
upperback -3.8246 0.960412 6.10006
thorax -10.4091 0.162762 1.77471
lowerneck -3.1878 -5.20107 1.6894
upperneck -14.3122 -9.17176 -15.982
head -4.53846 -3.97223 -4.94788
rclavicle -1.11319e-014 -2.22639e-014
rhumerus -59.1838 -27.406 -38.6011
rradius 79.2813
rwrist 157.076
rhand -27.8556 12.18
rfingers 7.12502
rthumb -1.24648 -17.7961
lclavicle -1.11319e-014 -2.22639e-014
lhumerus -55.6712 27.7185 57.1432
lradius 66.1729
lwrist 26.6314
lhand -14.4627 37.1817
lfingers 7.12502
lthumb 11.6829 66.8359
rfemur -27.9447 19.0785 12.8432
rtibia 18.5488
rfoot -20.2033 -27.062
rtoes 23.3413
lfemur -24.021 -21.3019 -10.6136
ltibia 12.916
lfoot -5.66761 21.3125
ltoes -5.89341
3054
root 0.0332361 18.2475 1.46765 22.8604 2.64119 0.741692
lowerback 11.1398 -0.662345 8.30546
upperback -3.85135 0.999037 6.12174
thorax -10.4938 0.178209 1.77899
lowerneck -3.20664 -5.17701 1.655
upperneck -14.3163 -9.14136 -16.0051
head -4.53318 -3.95526 -4.9516
rclavicle 6.36111e-015 -1.27222e-014
rhumerus -59.3001 -27.2968 -38.509
rradius 79.4517
rwrist 156.343
rhand -27.1265 13.1529
rfingers 7.12502
rthumb -0.542295 -16.8262
lclavicle 6.36111e-015 -1.27222e-014
lhumerus -55.7684 27.7731 56.856
lradius 66.1134
lwrist 26.6447
lhand -14.4737 37.1003
lfingers 7.12502
lthumb 11.6724 66.7552
rfemur -27.8809 19.0416 12.9044
rtibia 18.472
rfoot -20.0614 -27.01
rtoes 22.4311
lfemur -24.0069 -21.2479 -10.6174
ltibia 12.9455
lfoot -5.65165 21.3433
ltoes -6.43685
3055
root 0.0206797 18.2472 1.46801 22.8547 2.55253 0.772393
lowerback 11.2601 -0.63822 8.29847
upperback -3.86654 1.04984 6.13977
thorax -10.5818 0.201582 1.79543
lowerneck -3.28846 -5.15087 1.64013
upperneck -14.2526 -9.09907 -16.0553
head -4.497 -3.9391 -4.96959
rclavicle 2.3059e-014 -5.24792e-014
rhumerus -59.3614 -27.19 -38.3782
rradius 79.5149
rwrist 155.617
rhand -26.5639 13.5999
rfingers 7.12502
rthumb 0.00109542 -16.3799
lclavicle 2.3059e-014 -5.24792e-014
lhumerus -55.8548 27.9075 56.551
lradius 66.0133
lwrist 26.5818
lhand -14.3586 37.1214
lfingers 7.12502
lthumb 11.7833 66.7699
rfemur -27.8426 19.0007 12.9096
rtibia 18.3927
rfoot -20.0733 -26.8077
rtoes 22.9616
lfemur -23.953 -21.2748 -10.6302
ltibia 12.9369
lfoot -5.76559 21.4545
ltoes -6.39061
3056
root 0.00921799 18.2465 1.46692 22.876 2.45081 0.81975
lowerback 11.3393 -0.623489 8.27075
upperback -3.8488 1.07695 6.1698
thorax -10.6092 0.217226 1.83896
lowerneck -3.40994 -5.10928 1.63344
upperneck -14.2385 -9.04557 -16.129
head -4.46929 -3.91633 -4.99861
rclavicle 8.74653e-015 -5.88403e-014
rhumerus -59.367 -27.2109 -38.1572
rradius 79.5203
rwrist 155.365
rhand -26.4037 13.6354
rfingers 7.12502
rthumb 0.155863 -16.3443
lclavicle 8.74653e-015 -5.88403e-014
lhumerus -55.9312 28.1494 56.2534
lradius 65.9271
lwrist 26.4356
lhand -14.29 37.2805
lfingers 7.12502
lthumb 11.8494 66.9252
rfemur -27.8745 19.0165 12.8583
rtibia 18.3571
rfoot -19.7953 -26.8515
rtoes 22.3453
lfemur -23.9112 -21.3806 -10.6306
ltibia 12.8712
lfoot -5.77111 21.6478
ltoes -6.25702
3057
root -0.00318585 18.2461 1.46715 22.883 2.38272 0.824442
lowerback 11.427 -0.609985 8.29218
upperback -3.83673 1.11368 6.21702
thorax -10.6483 0.234619 1.87263
lowerneck -3.50519 -5.10523 1.59703
upperneck -14.2242 -9.04503 -16.199
head -4.45009 -3.91713 -5.01817
rclavicle 7.95139e-015 -5.40694e-014
rhumerus -59.4399 -27.3273 -37.8514
rradius 79.5229
rwrist 155.374
rhand -26.468 13.748
rfingers 7.12502
rthumb 0.0937307 -16.2317
lclavicle 7.95139e-015 -5.40694e-014
lhumerus -56.0265 28.304 56.0074
lradius 65.8997
lwrist 26.2918
lhand -14.3245 37.3699
lfingers 7.12502
lthumb 11.8162 67.0165
rfemur -27.9334 19.1673 12.8223
rtibia 18.3845
rfoot -19.4956 -27.0791
rtoes 21.4547
lfemur -23.8513 -21.5269 -10.5538
ltibia 12.7495
lfoot -5.85721 21.8874
ltoes -5.70805
3058
root -0.0134584 18.2457 1.46575 22.9269 2.30969 0.814574
lowerback 11.5074 -0.591987 8.37835
upperback -3.86252 1.16743 6.2412
thorax -10.7245 0.25349 1.84318
lowerneck -3.54293 -5.09259 1.648
upperneck -14.1725 -9.03804 -16.3398
head -4.43464 -3.91533 -5.07331
rclavicle -2.38542e-015 7.31528e-014
rhumerus -59.5727 -27.431 -37.4923
rradius 79.4743
rwrist 155.386
rhand -26.7057 13.6524
rfingers 7.12502
rthumb -0.13583 -16.3273
lclavicle -2.38542e-015 7.31528e-014
lhumerus -56.1177 28.3487 55.7796
lradius 65.8505
lwrist 26.1907
lhand -14.418 37.3934
lfingers 7.12502
lthumb 11.7261 67.0452
rfemur -28.0466 19.1994 12.8174
rtibia 18.4425
rfoot -19.139 -27.168
rtoes 20.4496
lfemur -23.8008 -21.5536 -10.5002
ltibia 12.5863
lfoot -5.81887 22.0705
ltoes -5.56016
3059
root -0.0229285 18.2452 1.46312 23.0608 2.23731 0.828049
lowerback 11.4815 -0.578272 8.42813
upperback -3.91473 1.19878 6.27154
thorax -10.7681 0.264665 1.84452
lowerneck -3.58828 -5.06762 1.67985
upperneck -14.079 -9.00621 -16.4758
head -4.40174 -3.90333 -5.12483
rclavicle -9.54166e-015 5.08889e-014
rhumerus -59.6762 -27.4734 -37.1419
rradius 79.4277
rwrist 155.581
rhand -27.0361 13.3827
rfingers 7.12502
rthumb -0.454968 -16.5965
lclavicle -9.54166e-015 5.08889e-014
lhumerus -56.256 28.4193 55.5427
lradius 65.8056
lwrist 26.2525
lhand -14.5209 37.3248
lfingers 7.12502
lthumb 11.6268 66.9823
rfemur -28.2612 19.1602 12.7625
rtibia 18.4948
rfoot -18.7909 -27.1866
rtoes 19.5948
lfemur -23.8714 -21.5956 -10.4267
ltibia 12.4378
lfoot -5.74104 22.2605
ltoes -5.52446
3060
root -0.0337066 18.2458 1.45969 23.1428 2.15002 0.848374
lowerback 11.5088 -0.556278 8.45386
upperback -3.92101 1.23966 6.30111
thorax -10.7912 0.283012 1.85518
lowerneck -3.65241 -5.05481 1.67576
upperneck -14.0807 -8.99515 -16.5334
head -4.3923 -3.8988 -5.14536
rclavicle -1.19271e-014 2.06736e-014
rhumerus -59.7628 -27.6084 -36.8003
rradius 79.4015
rwrist 155.825
rhand -27.3191 13.1611
rfingers 7.12502
rthumb -0.728258 -16.8174
lclavicle -1.19271e-014 2.06736e-014
lhumerus -56.3215 28.5117 55.375
lradius 65.7865
lwrist 26.4322
lhand -14.5294 37.125
lfingers 7.12502
lthumb 11.6186 66.7829
rfemur -28.4472 19.2234 12.6751
rtibia 18.5768
rfoot -18.8358 -27.0826
rtoes 19.8233
lfemur -23.8919 -21.6386 -10.3716
ltibia 12.2776
lfoot -5.7735 22.4135
ltoes -5.21234
3061
root -0.0451531 18.2471 1.45781 23.2036 2.09194 0.791762
lowerback 11.5454 -0.55235 8.56696
upperback -3.91412 1.27321 6.36087
thorax -10.8058 0.293602 1.8519
lowerneck -3.75907 -5.03247 1.60566
upperneck -14.0268 -8.95244 -16.5356
head -4.35087 -3.88292 -5.13936
rclavicle -1.59028e-015 4.77083e-015
rhumerus -59.7931 -27.7127 -36.5144
rradius 79.3076
rwrist 155.762
rhand -27.4906 13.0146
rfingers 7.12502
rthumb -0.89394 -16.9633
lclavicle -1.59028e-015 4.77083e-015
lhumerus -56.3598 28.6192 55.188
lradius 65.6611
lwrist 26.4781
lhand -14.5885 36.9682
lfingers 7.12502
lthumb 11.5616 66.6293
rfemur -28.6013 19.3503 12.6741
rtibia 18.6573
rfoot -18.7664 -27.0978
rtoes 19.6003
lfemur -23.8788 -21.608 -10.2626
ltibia 12.1134
lfoot -5.75751 22.5523
ltoes -5.17153
3062
root -0.0532718 18.2462 1.45778 23.2869 1.97805 0.839626
lowerback 11.4959 -0.540309 8.60079
upperback -3.87669 1.28699 6.39609
thorax -10.7344 0.301358 1.8665
lowerneck -3.91416 -4.99479 1.58
upperneck -13.9585 -8.89616 -16.6228
head -4.30033 -3.86247 -5.17028
rclavicle 9.54166e-015 1.27222e-014
rhumerus -59.7311 -27.8326 -36.2443
rradius 79.1779
rwrist 155.719
rhand -27.5441 12.948
rfingers 7.12502
rthumb -0.945572 -17.0297
lclavicle 9.54166e-015 1.27222e-014
lhumerus -56.3842 28.816 54.99
lradius 65.5133
lwrist 26.3909
lhand -14.7378 36.8291
lfingers 7.12502
lthumb 11.4176 66.4982
rfemur -28.7602 19.3857 12.5588
rtibia 18.7336
rfoot -18.5517 -27.0312
rtoes 19.2538
lfemur -23.8763 -21.6316 -10.2693
ltibia 11.9574
lfoot -5.7753 22.7074
ltoes -4.93443
